<svg width="284" height="62" viewBox="0 0 284 62" fill="none" xmlns="http://www.w3.org/2000/svg">
<path fill-rule="evenodd" clip-rule="evenodd" d="M27.8565 0.288297C32.4598 1.00447 36.7561 3.03106 40.2267 6.1233V41.8767C36.7561 44.969 32.4598 46.9956 27.8565 47.7117C23.2532 48.4279 18.5399 47.803 14.2859 45.9125C10.0319 44.0221 6.41921 40.9469 3.88412 37.0584C1.34902 33.1699 0 28.6345 0 24C0 19.3655 1.34902 14.8301 3.88412 10.9416C6.41921 7.05316 10.0319 3.97797 14.2859 2.08749C18.5399 0.197017 23.2532 -0.427873 27.8565 0.288297ZM49.5928 36.0084C51.3775 32.2576 52.2992 28.1582 52.2906 24.0084C52.2992 19.8587 51.3775 15.7593 49.5928 12.0084H53.9722C57.0902 19.7078 57.0902 28.309 53.9722 36.0084H49.5928Z" fill="#0A0A0A"/>
<path fill-rule="evenodd" clip-rule="evenodd" d="M251.621 27.861L257.467 11.6609H260.268L266.825 35.5253H263.549L258.545 16.9048L251.621 35.9281L244.692 16.9048L239.66 35.5253H236.38L242.937 11.6609H245.742L251.621 27.861ZM68 23.9979C68 17.0116 73.371 11.6692 80.4317 11.6692C86.5009 11.661 90.839 15.6144 91.9214 19.9294H88.6162C87.5338 16.9377 84.4228 14.6199 80.4358 14.6199C75.0979 14.6199 71.1441 18.7294 71.1441 23.9979C71.1441 29.2664 75.0979 33.376 80.4358 33.376C84.4228 33.376 87.5338 31.0541 88.6162 28.0623H91.9214C90.839 32.3651 86.5009 36.3308 80.4317 36.3308C73.371 36.3308 68 30.9884 68 23.9979ZM93.9047 23.9979C93.9047 21.5595 94.6317 19.1759 95.9936 17.1484C97.3555 15.121 99.2913 13.5408 101.556 12.6076C103.821 11.6745 106.313 11.4304 108.717 11.9061C111.122 12.3818 113.33 13.556 115.064 15.2802C116.797 17.0044 117.977 19.2012 118.456 21.5927C118.934 23.9843 118.688 26.4632 117.75 28.7159C116.812 30.9687 115.224 32.8942 113.185 34.2489C111.147 35.6036 108.751 36.3267 106.299 36.3267C104.669 36.336 103.053 36.0234 101.545 35.4071C100.037 34.7908 98.667 33.883 97.5142 32.7363C96.3614 31.5897 95.4488 30.2269 94.8292 28.7269C94.2097 27.2269 93.8954 25.6196 93.9047 23.9979ZM115.566 23.9979C115.566 18.7541 111.579 14.6198 106.308 14.6198C101.036 14.6198 97.0819 18.7541 97.0819 23.9979C97.0819 29.2418 101.069 33.376 106.308 33.376C111.546 33.376 115.566 29.2418 115.566 23.9979ZM125.209 17.3404L139.797 35.9281H142.495V12.0637H139.384V30.6514L124.804 12.0637H122.069V35.9281H125.209V17.3404ZM153.076 15.0226H145.61V12.0637H163.62V15.0226H156.154V35.9281H153.076V15.0226ZM175.105 12.0637H172.503L161.893 35.9281H165.136L168.177 28.9706H179.361L182.472 35.9281H185.748L175.105 12.0637ZM178.105 26.1473H169.429L173.746 16.2843L178.105 26.1473ZM186.112 23.998C186.112 17.0117 191.483 11.6692 198.544 11.6692C204.592 11.6692 208.951 15.6349 210.033 19.9377H206.728C205.646 16.9459 202.535 14.6281 198.548 14.6281C193.21 14.6281 189.256 18.7377 189.256 24.0062C189.256 29.2747 193.21 33.3843 198.548 33.3843C202.535 33.3843 205.646 31.0623 206.728 28.0706H210.033C208.951 32.3733 204.592 36.3391 198.544 36.3391C191.483 36.3308 186.112 30.9884 186.112 23.998ZM210.769 15.0226H218.234V35.9281H221.312V15.0226H228.778V12.0637H210.769V15.0226ZM283.739 12.0637H269.75V35.9281H283.739V32.9692H272.894V25.2062H281.715V22.2514H272.894V15.0226H283.739V12.0637Z" fill="#0A0A0A"/>
<path d="M163.321 58V47.0909H164.578V51.1179H164.685C164.777 50.9759 164.905 50.7947 165.068 50.5746C165.235 50.3509 165.473 50.152 165.782 49.978C166.094 49.8004 166.517 49.7116 167.05 49.7116C167.739 49.7116 168.346 49.8839 168.871 50.2283C169.397 50.5728 169.807 51.0611 170.102 51.6932C170.397 52.3253 170.544 53.071 170.544 53.9304C170.544 54.7969 170.397 55.5479 170.102 56.1836C169.807 56.8157 169.399 57.3058 168.877 57.6538C168.355 57.9982 167.753 58.1705 167.071 58.1705C166.545 58.1705 166.125 58.0835 165.809 57.9094C165.493 57.7319 165.249 57.5312 165.079 57.3075C164.908 57.0803 164.777 56.892 164.685 56.7429H164.536V58H163.321ZM164.557 53.9091C164.557 54.527 164.647 55.0721 164.828 55.5444C165.01 56.0131 165.274 56.3807 165.622 56.647C165.97 56.9098 166.396 57.0412 166.901 57.0412C167.426 57.0412 167.865 56.9027 168.216 56.6257C168.571 56.3452 168.838 55.9687 169.015 55.4964C169.196 55.0206 169.287 54.4915 169.287 53.9091C169.287 53.3338 169.198 52.8153 169.021 52.3537C168.847 51.8885 168.582 51.521 168.227 51.2511C167.875 50.9776 167.433 50.8409 166.901 50.8409C166.389 50.8409 165.96 50.9705 165.612 51.2298C165.263 51.4854 165.001 51.8441 164.823 52.3058C164.646 52.7638 164.557 53.2983 164.557 53.9091ZM172.834 61.0682C172.621 61.0682 172.431 61.0504 172.264 61.0149C172.097 60.983 171.981 60.951 171.917 60.919L172.237 59.8111C172.542 59.8892 172.812 59.9176 173.047 59.8963C173.281 59.875 173.489 59.7702 173.67 59.582C173.855 59.3974 174.023 59.0973 174.176 58.6818L174.41 58.0426L171.385 49.8182H172.748L175.007 56.3381H175.092L177.351 49.8182H178.714L175.241 59.1932C175.085 59.6158 174.892 59.9656 174.661 60.2425C174.43 60.5231 174.162 60.7308 173.856 60.8658C173.555 61.0007 173.214 61.0682 172.834 61.0682ZM185.784 47.0909V58H184.463V47.0909H185.784ZM197.061 50.5H195.74C195.662 50.12 195.525 49.7862 195.33 49.4986C195.138 49.2109 194.904 48.9695 194.627 48.7741C194.353 48.5753 194.05 48.4261 193.716 48.3267C193.382 48.2273 193.034 48.1776 192.672 48.1776C192.011 48.1776 191.413 48.3445 190.877 48.6783C190.344 49.0121 189.92 49.5039 189.604 50.1538C189.291 50.8036 189.135 51.6009 189.135 52.5455C189.135 53.4901 189.291 54.2873 189.604 54.9371C189.92 55.587 190.344 56.0788 190.877 56.4126C191.413 56.7464 192.011 56.9134 192.672 56.9134C193.034 56.9134 193.382 56.8636 193.716 56.7642C194.05 56.6648 194.353 56.5174 194.627 56.3221C194.904 56.1232 195.138 55.88 195.33 55.5923C195.525 55.3011 195.662 54.9673 195.74 54.5909H197.061C196.962 55.1484 196.78 55.6474 196.518 56.0877C196.255 56.5281 195.928 56.9027 195.538 57.2116C195.147 57.517 194.708 57.7496 194.222 57.9094C193.739 58.0692 193.222 58.1491 192.672 58.1491C191.741 58.1491 190.914 57.9219 190.19 57.4673C189.465 57.0128 188.895 56.3665 188.48 55.5284C188.064 54.6903 187.856 53.696 187.856 52.5455C187.856 51.3949 188.064 50.4006 188.48 49.5625C188.895 48.7244 189.465 48.0781 190.19 47.6236C190.914 47.169 191.741 46.9418 192.672 46.9418C193.222 46.9418 193.739 47.0217 194.222 47.1815C194.708 47.3413 195.147 47.5756 195.538 47.8846C195.928 48.19 196.255 48.5629 196.518 49.0032C196.78 49.44 196.962 49.9389 197.061 50.5ZM208.25 52.5455C208.25 53.696 208.042 54.6903 207.627 55.5284C207.211 56.3665 206.642 57.0128 205.917 57.4673C205.193 57.9219 204.365 58.1491 203.435 58.1491C202.504 58.1491 201.677 57.9219 200.953 57.4673C200.228 57.0128 199.658 56.3665 199.243 55.5284C198.827 54.6903 198.619 53.696 198.619 52.5455C198.619 51.3949 198.827 50.4006 199.243 49.5625C199.658 48.7244 200.228 48.0781 200.953 47.6236C201.677 47.169 202.504 46.9418 203.435 46.9418C204.365 46.9418 205.193 47.169 205.917 47.6236C206.642 48.0781 207.211 48.7244 207.627 49.5625C208.042 50.4006 208.25 51.3949 208.25 52.5455ZM206.972 52.5455C206.972 51.6009 206.814 50.8036 206.498 50.1538C206.185 49.5039 205.761 49.0121 205.225 48.6783C204.692 48.3445 204.095 48.1776 203.435 48.1776C202.774 48.1776 202.176 48.3445 201.64 48.6783C201.107 49.0121 200.683 49.5039 200.367 50.1538C200.054 50.8036 199.898 51.6009 199.898 52.5455C199.898 53.4901 200.054 54.2873 200.367 54.9371C200.683 55.587 201.107 56.0788 201.64 56.4126C202.176 56.7464 202.774 56.9134 203.435 56.9134C204.095 56.9134 204.692 56.7464 205.225 56.4126C205.761 56.0788 206.185 55.587 206.498 54.9371C206.814 54.2873 206.972 53.4901 206.972 52.5455ZM218.972 47.0909V58H217.694L211.749 49.4347H211.642V58H210.321V47.0909H211.6L217.566 55.6776H217.672V47.0909H218.972ZM225.534 58V47.0909H232.118V48.2628H226.855V51.9489H231.777V53.1207H226.855V56.8281H232.203V58H225.534ZM234.988 61.0682C234.775 61.0682 234.585 61.0504 234.418 61.0149C234.251 60.983 234.136 60.951 234.072 60.919L234.392 59.8111C234.697 59.8892 234.967 59.9176 235.201 59.8963C235.436 59.875 235.643 59.7702 235.824 59.582C236.009 59.3974 236.178 59.0973 236.33 58.6818L236.565 58.0426L233.539 49.8182H234.903L237.161 56.3381H237.247L239.505 49.8182H240.869L237.396 59.1932C237.24 59.6158 237.046 59.9656 236.815 60.2425C236.584 60.5231 236.316 60.7308 236.011 60.8658C235.709 61.0007 235.368 61.0682 234.988 61.0682ZM245.516 58.1705C244.727 58.1705 244.047 57.9964 243.475 57.6484C242.907 57.2969 242.469 56.8068 242.16 56.1783C241.854 55.5462 241.702 54.8111 241.702 53.973C241.702 53.1349 241.854 52.3963 242.16 51.7571C242.469 51.1143 242.898 50.6136 243.449 50.255C244.003 49.8928 244.649 49.7116 245.388 49.7116C245.814 49.7116 246.235 49.7827 246.65 49.9247C247.066 50.0668 247.444 50.2976 247.785 50.6172C248.126 50.9332 248.397 51.3523 248.6 51.8743C248.802 52.3963 248.903 53.0391 248.903 53.8026V54.3352H242.597V53.2486H247.625C247.625 52.7869 247.533 52.375 247.348 52.0128C247.167 51.6506 246.908 51.3647 246.57 51.1552C246.236 50.9457 245.842 50.8409 245.388 50.8409C244.887 50.8409 244.454 50.9652 244.088 51.2138C243.726 51.4588 243.447 51.7784 243.252 52.1726C243.056 52.5668 242.959 52.9893 242.959 53.4403V54.1648C242.959 54.7827 243.065 55.3065 243.278 55.7362C243.495 56.1623 243.795 56.4872 244.179 56.7109C244.562 56.9311 245.008 57.0412 245.516 57.0412C245.846 57.0412 246.144 56.995 246.41 56.9027C246.68 56.8068 246.913 56.6648 247.108 56.4766C247.304 56.2848 247.454 56.0469 247.561 55.7628L248.775 56.1037C248.648 56.5156 248.433 56.8778 248.131 57.1903C247.829 57.4993 247.456 57.7408 247.012 57.9148C246.568 58.0852 246.07 58.1705 245.516 58.1705ZM252.519 58L250.026 49.8182H251.347L253.116 56.0824H253.201L254.948 49.8182H256.291L258.016 56.0611H258.102L259.87 49.8182H261.191L258.698 58H257.462L255.673 51.7145H255.545L253.755 58H252.519ZM265.855 58.1705C265.067 58.1705 264.387 57.9964 263.815 57.6484C263.247 57.2969 262.808 56.8068 262.499 56.1783C262.194 55.5462 262.041 54.8111 262.041 53.973C262.041 53.1349 262.194 52.3963 262.499 51.7571C262.808 51.1143 263.238 50.6136 263.788 50.255C264.342 49.8928 264.989 49.7116 265.727 49.7116C266.153 49.7116 266.574 49.7827 266.99 49.9247C267.405 50.0668 267.783 50.2976 268.124 50.6172C268.465 50.9332 268.737 51.3523 268.939 51.8743C269.142 52.3963 269.243 53.0391 269.243 53.8026V54.3352H262.936V53.2486H267.965C267.965 52.7869 267.872 52.375 267.688 52.0128C267.506 51.6506 267.247 51.3647 266.91 51.1552C266.576 50.9457 266.182 50.8409 265.727 50.8409C265.227 50.8409 264.793 50.9652 264.428 51.2138C264.065 51.4588 263.787 51.7784 263.591 52.1726C263.396 52.5668 263.298 52.9893 263.298 53.4403V54.1648C263.298 54.7827 263.405 55.3065 263.618 55.7362C263.835 56.1623 264.135 56.4872 264.518 56.7109C264.902 56.9311 265.347 57.0412 265.855 57.0412C266.185 57.0412 266.484 56.995 266.75 56.9027C267.02 56.8068 267.253 56.6648 267.448 56.4766C267.643 56.2848 267.794 56.0469 267.901 55.7628L269.115 56.1037C268.987 56.5156 268.772 56.8778 268.471 57.1903C268.169 57.4993 267.796 57.7408 267.352 57.9148C266.908 58.0852 266.409 58.1705 265.855 58.1705ZM273.413 58.1918C272.894 58.1918 272.424 58.0941 272.001 57.8988C271.579 57.6999 271.243 57.4141 270.995 57.0412C270.746 56.6648 270.622 56.2102 270.622 55.6776C270.622 55.2088 270.714 54.8288 270.899 54.5376C271.083 54.2429 271.33 54.0121 271.639 53.8452C271.948 53.6783 272.289 53.554 272.662 53.4723C273.038 53.3871 273.416 53.3196 273.796 53.2699C274.294 53.206 274.697 53.158 275.006 53.1261C275.318 53.0906 275.545 53.032 275.687 52.9503C275.833 52.8686 275.906 52.7266 275.906 52.5241V52.4815C275.906 51.956 275.762 51.5476 275.474 51.2564C275.19 50.9652 274.759 50.8196 274.18 50.8196C273.58 50.8196 273.109 50.951 272.768 51.2138C272.427 51.4766 272.188 51.7571 272.049 52.0554L270.856 51.6293C271.069 51.1321 271.353 50.745 271.708 50.468C272.067 50.1875 272.458 49.9922 272.88 49.8821C273.306 49.7685 273.725 49.7116 274.137 49.7116C274.4 49.7116 274.702 49.7436 275.043 49.8075C275.387 49.8679 275.719 49.994 276.039 50.1857C276.362 50.3775 276.63 50.6669 276.843 51.054C277.056 51.4411 277.163 51.9595 277.163 52.6094V58H275.906V56.892H275.842C275.757 57.0696 275.615 57.2596 275.416 57.462C275.217 57.6644 274.952 57.8366 274.622 57.9787C274.292 58.1207 273.889 58.1918 273.413 58.1918ZM273.605 57.0625C274.102 57.0625 274.521 56.9648 274.862 56.7695C275.206 56.5742 275.465 56.3221 275.639 56.0131C275.817 55.7042 275.906 55.3793 275.906 55.0384V53.8878C275.853 53.9517 275.735 54.0103 275.554 54.0636C275.377 54.1133 275.171 54.1577 274.936 54.1967C274.706 54.2322 274.48 54.2642 274.26 54.2926C274.043 54.3175 273.867 54.3388 273.733 54.3565C273.406 54.3991 273.1 54.4684 272.816 54.5643C272.536 54.6566 272.309 54.7969 272.135 54.9851C271.964 55.1697 271.879 55.4219 271.879 55.7415C271.879 56.1783 272.04 56.5085 272.364 56.7322C272.69 56.9524 273.104 57.0625 273.605 57.0625ZM279.307 58V49.8182H280.522V51.054H280.607C280.756 50.6491 281.026 50.3207 281.417 50.0685C281.807 49.8164 282.248 49.6903 282.738 49.6903C282.83 49.6903 282.946 49.6921 283.084 49.6957C283.223 49.6992 283.327 49.7045 283.398 49.7116V50.9901C283.356 50.9794 283.258 50.9634 283.105 50.9421C282.956 50.9173 282.798 50.9048 282.631 50.9048C282.234 50.9048 281.878 50.9883 281.566 51.1552C281.257 51.3185 281.012 51.5458 280.831 51.837C280.653 52.1246 280.565 52.4531 280.565 52.8224V58H279.307Z" fill="#6C6C6C"/>
</svg>
